<svg width="24" height="24" viewBox="0 0 24 24" fill="none" xmlns="http://www.w3.org/2000/svg">
<path d="M19.4595 7.37603C19.4595 6.88643 19.0519 6.48927 18.5492 6.48911L5.45145 6.48911C4.94855 6.48911 4.54055 6.88635 4.54055 7.37603L4.54055 16.4852C4.54064 16.9748 4.94861 17.3715 5.45145 17.3715H18.5492C19.0519 17.3713 19.4594 16.9747 19.4595 16.4852V7.37603ZM17.2152 7.78804C17.4979 7.57401 17.9055 7.62377 18.1254 7.89906C18.3453 8.17439 18.2941 8.57125 18.0114 8.78537L12.3984 13.0362C12.1642 13.2136 11.8358 13.2136 11.6016 13.0362L5.98861 8.78537L5.93793 8.74281C5.70039 8.52177 5.66857 8.1571 5.87459 7.89906C6.0945 7.62376 6.50208 7.57399 6.78485 7.78804L12 11.7366L17.2152 7.78804ZM20.7568 16.4852C20.7567 17.6723 19.7684 18.6345 18.5492 18.6347H5.45145C4.23209 18.6347 3.24335 17.6724 3.24326 16.4852L3.24326 7.37603C3.24326 6.18875 4.23204 5.22595 5.45145 5.22595L18.5492 5.22595C19.7685 5.22612 20.7568 6.18887 20.7568 7.37603V16.4852Z" fill="white"/>
</svg>
