<svg width="25" height="25" viewBox="0 0 25 25" fill="none" xmlns="http://www.w3.org/2000/svg">
<path d="M13.7368 9.27136C13.6631 9.2027 13.604 9.1199 13.5631 9.0279C13.5221 8.9359 13.5 8.83659 13.4982 8.73589C13.4965 8.63518 13.515 8.53515 13.5527 8.44177C13.5904 8.34838 13.6466 8.26354 13.7178 8.19233C13.789 8.12111 13.8738 8.06496 13.9672 8.02724C14.0606 7.98952 14.1607 7.971 14.2614 7.97277C14.3621 7.97455 14.4614 7.99659 14.5534 8.03758C14.6454 8.07858 14.7282 8.13768 14.7968 8.21136L18.7968 12.2114C18.9373 12.352 19.0162 12.5426 19.0162 12.7414C19.0162 12.9401 18.9373 13.1307 18.7968 13.2714L14.7968 17.2714C14.7282 17.3451 14.6454 17.4042 14.5534 17.4451C14.4614 17.4861 14.3621 17.5082 14.2614 17.51C14.1607 17.5117 14.0606 17.4932 13.9672 17.4555C13.8738 17.4178 13.789 17.3616 13.7178 17.2904C13.6466 17.2192 13.5904 17.1343 13.5527 17.041C13.515 16.9476 13.4965 16.8475 13.4982 16.7468C13.5 16.6461 13.5221 16.5468 13.5631 16.4548C13.604 16.3628 13.6631 16.28 13.7368 16.2114L16.4568 13.4914L6.76683 13.4914C6.56792 13.4914 6.37716 13.4123 6.2365 13.2717C6.09585 13.131 6.01683 12.9403 6.01683 12.7414C6.01683 12.5425 6.09585 12.3517 6.2365 12.211C6.37716 12.0704 6.56792 11.9914 6.76683 11.9914L16.4568 11.9914L13.7368 9.27136Z" fill="black"/>
</svg>
